<?xml version="1.0" standalone="no"?>
<!DOCTYPE svg PUBLIC "-//W3C//DTD SVG 20010904//EN"
 "http://www.w3.org/TR/2001/REC-SVG-20010904/DTD/svg10.dtd">
<svg version="1.0" xmlns="http://www.w3.org/2000/svg"
 width="4096.000000pt" height="4096.000000pt" viewBox="0 0 4096.000000 4096.000000"
 preserveAspectRatio="xMidYMid meet">

<g transform="translate(0.000000,4096.000000) scale(0.100000,-0.100000)"
fill="#000000" stroke="none">
<path d="M1 39833 c1 -625 5 -1115 9 -1098 5 17 25 107 45 200 74 349 216 685
392 931 32 44 74 102 93 129 155 215 443 471 690 614 218 125 452 222 650 269
129 30 189 42 305 58 28 3 57 10 65 15 8 5 -495 9 -1117 9 l-1133 0 1 -1127z"/>
<path d="M38704 40953 c7 -8 20 -10 86 -17 176 -19 361 -66 571 -146 178 -68
314 -141 480 -256 31 -22 82 -58 115 -80 32 -23 106 -84 164 -136 272 -244
519 -598 653 -938 25 -63 60 -164 77 -225 17 -60 35 -125 41 -142 16 -52 30
-132 36 -210 4 -53 9 -73 19 -73 12 0 14 170 14 1115 l0 1115 -1132 0 c-622 0
-1128 -3 -1124 -7z"/>
<path d="M13180 34288 c-3 -3 -48 -8 -100 -11 -667 -42 -1344 -282 -1868 -664
-288 -210 -511 -421 -708 -668 -528 -665 -814 -1440 -818 -2225 -1 -179 7
-359 19 -455 67 -515 238 -995 523 -1465 170 -280 336 -494 620 -797 570 -611
852 -1378 793 -2158 -28 -376 -135 -747 -338 -1175 -117 -247 -290 -547 -363
-630 -12 -14 -64 -88 -115 -165 -293 -441 -456 -843 -520 -1280 -36 -250 -40
-293 -39 -480 2 -255 54 -607 129 -863 62 -215 196 -515 363 -813 245 -440
361 -725 426 -1054 78 -393 73 -651 -21 -1095 -58 -277 -322 -807 -488 -980
-140 -145 -403 -507 -522 -715 -257 -451 -403 -876 -469 -1365 -13 -93 -17
-203 -18 -425 -1 -317 13 -472 65 -730 76 -381 254 -780 538 -1210 236 -358
526 -656 906 -932 341 -248 805 -459 1245 -568 316 -77 524 -100 925 -100 271
0 372 10 645 61 556 104 1142 373 1586 730 529 424 889 916 1140 1555 196 502
268 1134 189 1659 -8 52 -21 131 -29 175 -8 44 -17 96 -21 115 -38 221 -217
689 -359 940 -178 316 -329 521 -587 796 -91 97 -246 335 -322 494 -120 252
-175 440 -212 720 -14 105 -13 386 1 480 18 116 65 317 101 425 57 175 208
444 360 642 173 224 504 463 851 612 153 67 460 149 657 176 135 18 548 13
662 -9 356 -68 679 -190 995 -378 177 -106 295 -165 452 -228 275 -110 668
-191 941 -194 121 -1 358 9 415 18 45 7 114 17 155 22 64 8 290 69 442 119
152 50 481 206 616 293 247 158 563 274 937 344 159 29 519 36 682 13 251 -35
568 -128 743 -218 331 -171 614 -389 759 -587 221 -301 322 -513 405 -846 46
-185 62 -316 60 -498 -2 -246 -29 -424 -95 -627 -40 -124 -120 -322 -164 -407
-74 -142 -237 -385 -287 -427 -55 -46 -313 -408 -443 -620 -76 -124 -210 -404
-277 -575 -90 -234 -188 -630 -208 -845 -3 -38 -8 -85 -11 -104 -7 -53 -7
-368 0 -456 35 -422 67 -582 191 -952 82 -241 175 -439 328 -693 316 -526 772
-962 1352 -1290 368 -209 914 -384 1300 -416 44 -3 89 -8 100 -11 58 -12 540
-11 665 2 399 43 682 113 1059 264 204 82 517 252 695 377 301 212 609 509
828 799 255 339 473 781 584 1183 144 528 167 1004 73 1542 -39 224 -112 474
-203 698 -103 252 -179 396 -334 630 -131 198 -239 334 -437 544 -221 235
-438 641 -534 999 -70 263 -86 382 -86 644 0 208 9 297 50 515 7 36 53 212 82
310 55 186 189 478 385 840 217 399 349 816 394 1240 47 453 -37 1013 -218
1444 -124 298 -252 516 -458 781 -80 104 -255 385 -341 550 -171 327 -289 690
-333 1020 -31 227 -38 447 -22 615 20 204 86 489 161 694 137 377 410 811 689
1096 254 260 489 572 658 875 132 235 188 359 273 602 87 246 116 376 180 798
10 70 14 485 5 610 -24 327 -105 687 -234 1030 -194 514 -544 1025 -943 1377
-167 146 -235 200 -438 339 -405 280 -987 500 -1490 563 -222 28 -269 31 -510
30 -322 -2 -606 -33 -845 -94 -418 -105 -756 -247 -1105 -463 -54 -34 -295
-213 -360 -268 -271 -231 -497 -479 -686 -754 -126 -185 -300 -511 -382 -721
-68 -172 -153 -466 -191 -659 -47 -237 -68 -642 -47 -915 49 -634 293 -1297
682 -1851 88 -125 272 -351 391 -480 245 -266 397 -492 539 -801 115 -251 175
-472 219 -813 18 -136 8 -452 -19 -598 -75 -408 -187 -689 -416 -1047 -216
-337 -578 -658 -965 -854 -137 -70 -367 -159 -530 -205 -219 -63 -629 -102
-819 -79 -330 39 -432 61 -664 139 -174 59 -317 124 -432 196 -239 150 -634
308 -904 362 -335 67 -741 75 -1051 20 -360 -63 -727 -199 -1022 -377 -247
-150 -600 -262 -949 -303 -140 -16 -554 -7 -674 15 -133 25 -376 89 -490 131
-125 45 -398 186 -526 271 -124 82 -296 228 -422 357 -366 374 -664 993 -722
1497 -3 30 -8 72 -11 93 -7 53 -7 414 -1 462 4 22 9 67 12 100 17 170 118 518
213 730 129 287 314 580 487 770 333 366 546 690 755 1148 89 196 213 628 244
852 35 251 49 594 32 795 -22 254 -78 561 -136 745 -125 392 -264 690 -463
990 -283 426 -577 721 -999 1003 -267 179 -510 301 -815 411 -242 87 -420 129
-675 161 -90 11 -179 22 -198 25 -56 7 -464 18 -470 13z m14600 -10705 c138
-16 236 -42 350 -90 99 -43 257 -131 339 -191 103 -75 266 -252 345 -372 16
-25 37 -57 47 -71 33 -49 87 -164 113 -243 125 -375 111 -717 -45 -1086 -75
-178 -164 -306 -319 -460 -126 -126 -233 -203 -387 -279 -262 -130 -654 -180
-944 -121 -147 30 -281 75 -385 129 -336 176 -564 413 -691 718 -54 130 -106
315 -123 438 -35 249 37 610 170 849 149 267 294 418 560 583 170 106 317 155
620 207 51 8 239 3 350 -11z m-14225 -8 c205 -33 413 -118 605 -246 101 -68
237 -196 311 -294 57 -74 156 -247 197 -340 104 -241 142 -585 92 -833 -56
-273 -243 -621 -425 -789 -88 -82 -279 -210 -398 -267 -393 -189 -870 -180
-1293 24 -132 64 -245 148 -379 284 -185 186 -316 414 -374 648 -71 286 -67
490 15 776 29 102 143 340 206 429 156 223 395 415 641 515 91 37 233 75 343
92 120 19 348 19 459 1z m14379 -4074 c101 -27 250 -97 323 -154 70 -54 169
-154 223 -226 112 -149 179 -416 158 -631 -16 -162 -99 -368 -197 -490 -114
-142 -274 -254 -441 -309 -129 -42 -304 -59 -442 -41 -215 28 -390 113 -543
265 -242 239 -335 552 -261 875 44 192 109 317 228 438 157 160 361 268 548
288 30 4 57 9 60 11 13 13 270 -7 344 -26z"/>
<path d="M8974 9192 l-101 -3 -7 -37 c-6 -39 -5 -3526 2 -3644 l4 -68 504 0
504 0 0 608 c0 619 5 777 23 800 15 19 2920 18 2936 -2 8 -10 12 -202 13 -709
l1 -695 506 1 506 2 0 1875 0 1875 -497 0 c-273 0 -500 -4 -505 -8 -4 -5 -9
-333 -11 -730 -2 -397 -5 -723 -8 -726 -2 -3 -669 -5 -1482 -5 l-1477 -1 -3
733 -2 732 -23 1 c-60 3 -795 4 -883 1z"/>
<path d="M17014 9193 c-12 -2 -28 -12 -36 -21 -19 -23 -215 -343 -313 -512
-43 -74 -110 -184 -148 -245 -67 -105 -244 -394 -440 -720 -50 -82 -138 -226
-197 -320 -58 -93 -144 -233 -190 -310 -46 -77 -129 -212 -185 -300 -56 -88
-138 -222 -184 -299 -45 -76 -126 -209 -180 -295 -180 -287 -436 -720 -429
-726 7 -7 1083 -9 1103 -2 11 4 35 33 53 64 30 54 88 149 196 318 24 39 77
124 117 190 39 66 78 127 85 135 12 14 162 16 1404 15 945 -1 1393 -4 1400
-11 6 -6 41 -64 79 -130 37 -65 113 -193 167 -284 55 -91 118 -195 139 -232
l39 -68 563 0 c467 0 563 2 563 14 0 18 -56 115 -284 493 -49 81 -176 292
-282 468 -267 446 -702 1166 -754 1250 -24 39 -114 187 -200 330 -263 435
-375 618 -425 696 -68 105 -147 235 -228 374 -38 66 -71 122 -74 125 -5 5
-1328 8 -1359 3z m763 -841 c6 -4 39 -56 73 -117 34 -60 95 -164 135 -230 40
-66 109 -186 154 -266 44 -81 125 -218 179 -305 151 -243 276 -474 263 -487
-13 -13 -1820 -12 -1833 1 -8 8 73 148 327 567 83 138 193 324 245 415 92 161
227 378 258 413 12 14 32 17 101 17 47 0 91 -4 98 -8z"/>
<path d="M22360 9189 c-245 -28 -403 -86 -590 -218 -96 -67 -147 -118 -200
-196 -139 -209 -192 -363 -207 -603 -9 -143 -9 -169 6 -303 23 -208 82 -354
208 -510 136 -169 268 -255 525 -343 147 -50 296 -73 523 -80 105 -3 276 -9
380 -12 105 -3 200 -7 213 -9 12 -2 181 -7 375 -10 193 -4 363 -8 376 -10 13
-2 197 -7 410 -10 212 -3 421 -8 463 -10 144 -9 235 -62 285 -163 24 -50 28
-68 27 -149 0 -82 -4 -98 -33 -157 -29 -59 -37 -67 -92 -95 -63 -31 -94 -38
-219 -45 -41 -3 -814 -5 -1717 -5 l-1643 -1 0 -404 c0 -223 4 -407 9 -410 5
-3 831 -6 1837 -6 1789 -1 1831 0 1939 19 254 47 424 131 594 295 169 163 223
282 290 631 5 28 10 115 9 195 0 384 -154 715 -408 879 -176 114 -383 186
-595 206 -38 4 -72 8 -75 10 -3 1 -88 6 -190 10 -102 4 -216 8 -255 10 -38 1
-221 6 -406 10 -185 4 -351 8 -370 10 -19 2 -146 6 -284 10 -137 3 -272 8
-300 10 -77 6 -254 14 -435 20 -232 8 -274 15 -335 50 -95 55 -139 137 -140
260 0 71 4 88 33 147 36 73 83 117 154 145 40 16 165 17 1745 18 936 0 1704 2
1707 5 3 3 6 188 6 410 l2 405 -1774 1 c-975 1 -1807 -2 -1848 -7z"/>
<path d="M27153 9189 c-22 -8 -23 -14 -23 -106 -4 -621 1 -3575 5 -3597 4 -16
8 -33 11 -38 3 -5 230 -7 505 -6 l499 1 0 106 c0 58 1 371 2 694 3 570 4 589
22 603 28 20 2934 21 2942 1 2 -7 6 -276 8 -598 2 -321 4 -635 5 -697 l1 -112
498 2 497 3 7 45 c3 25 6 868 5 1875 l-2 1830 -497 3 c-395 3 -498 1 -504 -10
-4 -7 -9 -336 -11 -732 -2 -456 -7 -722 -13 -726 -6 -3 -673 -6 -1482 -5
l-1473 0 -1 735 -1 734 -489 2 c-269 1 -499 -2 -511 -7z"/>
<path d="M0 1143 l0 -1143 1131 0 c751 0 1128 3 1124 10 -3 6 -18 10 -33 10
-71 0 -306 56 -483 114 -276 91 -490 200 -699 355 -268 200 -415 351 -584 606
-84 126 -180 289 -208 355 -122 280 -199 542 -215 733 -3 37 -12 75 -19 85
-11 14 -13 -176 -14 -1125z"/>
<path d="M40934 2235 c-4 -8 -3 -27 2 -43 11 -40 11 -46 -2 -57 -7 -5 -17 -40
-23 -76 -18 -110 -88 -348 -134 -459 -85 -203 -193 -397 -320 -575 -113 -157
-195 -248 -351 -388 -51 -47 -215 -169 -306 -229 -266 -174 -639 -322 -918
-363 -23 -4 -48 -12 -55 -18 -16 -15 -37 -20 -37 -8 0 13 -73 8 -77 -6 -3 -9
255 -12 1122 -13 l1125 -1 0 1126 c-1 1061 -3 1170 -26 1110z"/>
</g>
</svg>
